<?xml version="1.0" standalone="no"?>
<!DOCTYPE svg PUBLIC "-//W3C//DTD SVG 20010904//EN"
 "http://www.w3.org/TR/2001/REC-SVG-20010904/DTD/svg10.dtd">
<svg version="1.0" xmlns="http://www.w3.org/2000/svg"
 width="612.000000pt" height="612.000000pt" viewBox="0 0 612.000000 612.000000"
 preserveAspectRatio="xMidYMid meet">

<g transform="translate(0.000000,612.000000) scale(0.100000,-0.100000)"
fill="#000000" stroke="none">
<path d="M2810 6080 c-130 -18 -258 -65 -515 -191 -92 -44 -149 -89 -233 -180
-133 -147 -163 -183 -158 -195 4 -9 -4 -19 -22 -26 -26 -11 -26 -12 -4 -15 12
-3 22 -8 22 -13 0 -4 -10 -11 -22 -14 -23 -6 -23 -6 -3 -22 20 -16 20 -16 1
-27 -52 -31 -95 -106 -67 -115 9 -3 7 -10 -6 -24 -21 -24 -23 -61 -23 -448 1
-243 9 -364 36 -498 l7 -34 -31 16 c-37 19 -53 20 -74 4 -15 -12 -16 -30 -8
-168 7 -128 13 -167 34 -225 24 -64 26 -82 24 -210 -2 -178 6 -203 69 -226 26
-9 30 -18 67 -167 49 -201 84 -274 179 -377 92 -100 121 -149 138 -238 10 -55
13 -50 -125 -237 -109 -149 -163 -207 -209 -225 -79 -31 -333 -138 -657 -277
-63 -27 -148 -62 -187 -78 -40 -16 -125 -56 -190 -88 -65 -33 -129 -63 -143
-67 -14 -4 -61 -24 -105 -45 -44 -20 -95 -43 -113 -50 -51 -20 -118 -93 -140
-153 -33 -87 -45 -195 -40 -338 5 -100 3 -137 -8 -158 -8 -15 -14 -57 -14
-103 0 -63 -5 -86 -25 -124 -14 -27 -25 -64 -25 -86 0 -58 -29 -187 -52 -233
-30 -57 -58 -171 -58 -235 0 -54 -2 -57 -55 -110 -30 -30 -55 -60 -55 -67 0
-11 573 -13 3050 -13 l3050 0 0 515 0 516 -29 88 c-16 49 -37 104 -47 123 -31
60 -97 153 -128 180 l-31 26 29 81 c30 86 30 97 2 216 -9 39 -24 103 -33 143
-13 57 -24 79 -51 107 -20 19 -40 36 -46 37 -6 0 -22 2 -36 3 -14 1 -39 9 -55
17 -64 34 -328 108 -485 138 -317 59 -531 110 -765 180 -71 21 -156 46 -189
55 -51 15 -68 27 -150 109 -50 50 -137 143 -193 207 -108 122 -145 154 -187
165 l-26 6 0 -115 c0 -127 -9 -160 -73 -259 -41 -64 -151 -178 -221 -230 -103
-76 -170 -118 -188 -118 -10 0 -18 -4 -18 -10 0 -12 -49 -13 -67 -2 -6 4 -16
20 -22 35 -9 23 -16 27 -52 27 -23 0 -39 3 -35 7 4 5 11 8 14 9 29 4 40 17 32
39 -6 17 -3 31 16 59 14 20 30 36 36 36 6 0 19 6 27 13 9 8 35 19 59 26 23 6
42 16 42 21 0 6 4 10 10 10 5 0 20 11 34 25 14 14 34 25 44 25 12 0 36 22 61
54 23 30 48 56 54 59 7 2 20 27 30 55 10 27 28 58 39 69 11 10 29 34 39 53 11
19 25 43 32 53 16 23 -9 42 -33 24 -8 -6 -6 -1 4 11 11 12 25 21 32 18 16 -6
51 33 59 67 8 30 7 31 -29 18 -17 -7 -26 -7 -28 1 -2 6 -10 -8 -18 -31 -15
-48 -29 -54 -22 -11 3 18 0 30 -7 30 -6 0 -11 -9 -11 -20 0 -57 -90 -132 -131
-109 -15 7 -24 7 -35 -2 -8 -6 -27 -9 -44 -6 -24 5 -28 3 -23 -10 5 -13 2 -15
-20 -9 -15 3 -27 2 -27 -3 0 -5 -12 -12 -27 -16 -15 -3 -31 -11 -34 -16 -3 -6
-43 -12 -87 -14 -81 -4 -82 -3 -82 21 0 15 -6 24 -15 24 -8 0 -15 -4 -15 -10
0 -16 -76 -12 -90 5 -15 18 -42 19 -58 3 -9 -9 -12 -8 -12 5 0 9 -4 17 -10 17
-5 0 -10 5 -10 10 0 14 37 12 43 -2 3 -10 8 -10 18 1 11 10 11 15 1 18 -6 3
-10 8 -8 12 3 4 -7 6 -22 4 -22 -3 -30 1 -39 23 -15 32 -17 56 -4 35 10 -16
31 -6 31 14 0 8 -10 19 -22 26 -26 14 -12 24 46 32 21 3 43 10 49 16 6 6 24
11 39 11 18 0 28 5 28 15 0 8 -4 15 -10 15 -22 0 -8 29 20 41 27 13 29 16 24
59 -3 25 -10 57 -16 72 -5 15 -7 32 -3 37 13 22 -14 10 -34 -15 -20 -25 -51
-30 -58 -8 -7 21 27 42 85 54 31 6 64 14 72 16 8 3 41 7 72 9 60 4 100 23 131
62 10 13 24 23 30 22 8 0 8 -2 0 -6 -23 -9 -14 -21 24 -34 66 -21 74 -40 47
-105 -22 -51 -26 -84 -10 -84 7 0 19 11 26 25 7 14 18 25 24 26 6 0 26 18 44
39 31 37 52 98 55 167 1 17 5 35 10 39 4 4 7 18 7 30 0 13 5 26 10 29 15 9 12
52 -6 86 -9 18 -13 42 -9 57 5 23 -4 37 -52 90 -32 34 -64 62 -71 62 -7 0 -10
5 -7 10 3 6 2 10 -4 10 -5 0 -12 -6 -15 -12 -4 -7 -5 -3 -2 8 4 22 -36 54 -68
54 -9 0 -21 9 -28 20 -7 11 -21 20 -30 20 -10 0 -18 4 -18 9 0 5 -9 11 -21 14
-40 11 -47 0 -47 -74 1 -69 5 -78 25 -58 12 12 73 3 73 -11 0 -5 -7 -16 -16
-24 -14 -15 -14 -16 0 -16 9 0 16 -8 16 -19 0 -15 -8 -21 -32 -23 -17 -2 -33
-8 -35 -14 -2 -7 4 -11 13 -10 10 0 27 -13 38 -31 12 -18 35 -39 52 -47 39
-19 60 -44 66 -77 4 -21 -1 -28 -24 -38 -16 -7 -27 -19 -25 -25 3 -7 -8 -18
-24 -25 -31 -14 -95 -11 -229 10 -39 6 -87 8 -106 4 -19 -3 -34 -2 -34 3 0 12
24 22 52 22 16 0 18 3 9 13 -6 8 -8 17 -4 20 3 4 -6 7 -20 7 -23 0 -27 4 -27
30 0 17 5 30 10 30 6 0 10 -7 10 -16 0 -9 7 -14 17 -12 24 5 27 25 4 33 -17 5
-19 9 -9 25 7 11 15 16 18 11 3 -4 18 -11 34 -15 23 -6 27 -4 23 8 -4 9 -2 16
4 16 5 0 15 13 20 29 6 17 26 39 44 50 18 11 38 28 44 39 9 18 6 20 -50 25
-33 4 -70 9 -83 13 -18 4 -26 1 -30 -13 -3 -10 -15 -24 -26 -31 -17 -10 -20
-10 -17 5 1 10 6 23 10 30 5 8 0 11 -15 8 -26 -5 -72 31 -82 63 -4 11 -13 23
-21 26 -16 6 -20 42 -6 50 5 3 7 15 4 26 -3 11 0 20 6 20 6 0 11 14 11 30 0
17 9 39 20 50 11 11 20 28 20 38 0 10 3 22 7 26 4 3 8 14 9 24 3 16 2 16 -10
0 -20 -28 -32 -21 -29 15 2 17 -2 43 -10 57 -11 22 -10 27 8 43 18 16 19 18 3
27 -9 6 -15 16 -12 23 2 7 -6 19 -19 26 l-24 13 21 23 c16 17 32 22 71 22 28
1 55 -3 60 -7 6 -5 21 -10 35 -12 23 -3 25 -8 26 -53 0 -27 1 -57 2 -66 2 -20
94 -87 99 -72 2 6 25 -1 56 -18 35 -19 74 -30 120 -35 37 -4 67 -10 67 -15 0
-5 12 -4 26 1 14 6 55 10 92 10 37 0 74 5 82 10 11 7 4 10 -27 10 -72 0 -56
17 22 25 41 4 75 10 75 15 0 18 -62 21 -116 5 -59 -17 -84 -10 -84 24 0 13 11
16 53 16 28 0 59 -3 67 -7 30 -12 98 -28 119 -28 23 0 29 24 8 37 -7 4 -27 37
-45 73 -30 60 -37 68 -87 90 -30 13 -55 27 -55 31 0 7 -51 19 -82 20 -24 0
-23 19 1 19 10 0 21 6 24 13 3 9 16 12 36 9 23 -3 36 2 55 23 15 16 26 34 26
41 0 24 42 1 100 -57 33 -32 61 -55 63 -51 12 25 4 62 -20 86 -14 14 -23 26
-19 26 4 0 -2 14 -14 30 -13 19 -30 30 -44 30 -13 0 -29 7 -36 15 -7 8 -21 15
-31 15 -21 0 -71 21 -80 34 -4 5 -21 4 -40 -3 -65 -24 -299 -67 -303 -56 -2 5
-5 4 -5 -2 -1 -7 -12 -13 -26 -13 -16 0 -25 -6 -25 -16 0 -11 -5 -14 -16 -10
-22 8 -66 -4 -61 -18 4 -12 -41 -39 -53 -31 -4 3 -25 7 -45 10 -30 3 -35 2
-26 -9 9 -11 6 -15 -15 -20 -14 -4 -32 -2 -38 3 -7 6 -15 8 -18 5 -5 -4 -65
30 -95 56 -6 5 -37 23 -69 40 -44 24 -59 28 -65 18 -6 -10 -13 -8 -31 9 -17
16 -29 19 -45 12 -18 -7 -21 -5 -16 9 3 9 11 23 16 30 8 10 7 16 -4 23 -11 7
-10 9 6 9 18 0 18 1 -3 16 -26 18 -29 34 -4 27 24 -6 74 42 73 70 -2 56 -9 82
-22 83 -8 1 -17 2 -22 3 -4 0 0 12 9 26 15 23 15 24 -10 31 -31 7 -33 19 -6
34 24 13 26 30 5 30 -16 0 -18 12 -9 47 4 13 11 20 16 17 6 -4 13 -2 17 3 3 5
16 16 29 25 19 13 20 17 7 21 -9 4 -20 -1 -27 -13 -15 -23 -48 -27 -48 -5 0
18 45 49 60 40 16 -10 50 5 50 22 0 11 6 14 21 10 14 -4 19 -2 16 7 -4 10 9
13 51 13 31 0 68 0 82 1 14 1 57 0 95 -2 79 -5 74 -5 210 0 133 4 121 5 200
-2 39 -4 72 -10 75 -14 3 -4 39 -15 80 -24 41 -10 78 -22 82 -29 4 -6 22 -10
41 -9 36 3 76 -27 50 -35 -19 -7 -16 -23 3 -23 11 0 14 -5 10 -16 -4 -9 -2
-22 3 -28 5 -7 4 -30 -4 -59 -13 -51 -10 -92 9 -117 6 -8 20 -31 31 -50 10
-19 25 -41 32 -48 7 -7 13 -22 13 -32 0 -18 25 -34 39 -25 4 2 8 -1 8 -8 0
-16 62 -107 73 -107 11 0 22 -40 20 -72 -1 -16 3 -28 9 -28 7 0 11 -30 11 -82
0 -100 18 -414 25 -445 3 -13 10 -23 15 -23 5 0 7 47 3 115 -4 80 -2 124 7
144 7 17 15 30 19 29 13 -4 71 33 66 42 -9 14 -25 12 -59 -5 -28 -15 -28 -14
-22 7 34 114 44 471 22 713 -9 99 -21 194 -26 210 -4 17 -11 62 -15 100 -3 39
-15 102 -27 140 -12 39 -20 82 -19 97 1 25 -57 147 -89 186 -8 9 -20 28 -26
42 -34 75 -41 84 -82 102 -23 10 -76 25 -118 33 -41 8 -81 21 -89 28 -7 7 -39
20 -71 27 -33 8 -70 20 -84 27 -14 7 -36 13 -50 13 -14 0 -70 9 -125 19 -122
23 -242 31 -315 21z m-223 -846 c-3 -3 -12 -4 -19 -1 -8 3 -5 6 6 6 11 1 17
-2 13 -5z m746 -571 c-7 -2 -19 -2 -25 0 -7 3 -2 5 12 5 14 0 19 -2 13 -5z
m-898 -232 c6 -1 4 -5 -2 -9 -7 -4 -30 -6 -50 -4 -31 4 -34 6 -18 12 11 5 29
7 40 5 11 -2 25 -4 30 -4z m1031 -17 c23 -8 52 -26 65 -40 26 -28 26 -28 -61
14 -25 11 -65 24 -88 28 -23 4 -42 11 -42 15 0 12 73 2 126 -17z m-656 -48 c0
-3 -4 -8 -10 -11 -5 -3 -10 -1 -10 4 0 6 5 11 10 11 6 0 10 -2 10 -4z m-924
-17 c3 -6 1 -15 -6 -19 -8 -5 -11 -19 -7 -35 2 -16 1 -41 -4 -58 -5 -16 -9
-74 -10 -128 -1 -53 -5 -112 -10 -131 -5 -21 -7 18 -4 107 9 243 18 301 41
264z m619 -11 c15 -22 14 -23 -15 -32 -37 -11 -44 -5 -36 29 8 31 30 32 51 3z
m940 -8 c-3 -6 4 -10 17 -11 22 0 22 -1 3 -9 -33 -14 -43 -11 -38 10 3 11 10
20 15 20 5 0 6 -4 3 -10z m-90 -50 c3 -5 1 -10 -4 -10 -6 0 -11 5 -11 10 0 6
2 10 4 10 3 0 8 -4 11 -10z m-885 -15 c0 -8 -4 -15 -10 -15 -5 0 -10 7 -10 15
0 8 5 15 10 15 6 0 10 -7 10 -15z m33 -262 c3 -5 0 -19 -5 -33 -6 -17 -11 -21
-17 -12 -8 14 -41 6 -41 -10 0 -5 -8 -7 -19 -3 -12 4 -21 0 -25 -12 -3 -10 -9
-24 -12 -30 -3 -7 -1 -13 5 -13 6 0 11 6 11 14 0 7 9 16 20 19 11 3 20 2 20
-1 -1 -16 -17 -31 -43 -37 -15 -4 -27 -11 -27 -16 0 -5 -7 -9 -15 -9 -8 0 -19
-10 -26 -21 -9 -18 -17 -20 -50 -15 -33 5 -39 3 -39 -11 -1 -17 -2 -17 -13 -1
-9 11 -18 13 -29 7 -11 -6 -18 -4 -22 6 -4 11 2 15 19 15 14 0 29 8 35 20 10
18 8 20 -26 20 -29 0 -35 3 -30 16 3 9 6 22 6 31 0 8 6 13 12 11 7 -3 17 5 23
16 9 17 23 22 85 28 41 4 95 11 120 16 59 13 78 14 83 5z m-666 -200 c-2 -27
-3 -5 -3 47 0 52 1 74 3 48 2 -27 2 -69 0 -95z m371 -10 c-10 -2 -26 -2 -35 0
-10 3 -2 5 17 5 19 0 27 -2 18 -5z m832 -93 c0 -5 -7 -10 -16 -10 -8 0 -12 5
-9 10 3 6 10 10 16 10 5 0 9 -4 9 -10z m-164 -89 c-3 -5 1 -11 9 -15 21 -8 8
-34 -27 -52 -42 -22 -84 -10 -97 27 -9 27 0 41 14 19 3 -5 12 -7 20 -3 9 3 15
-1 15 -11 0 -20 20 -21 21 -1 1 8 3 20 4 25 1 6 3 12 4 15 0 3 10 5 22 5 11 0
18 -4 15 -9z m4 -121 c0 -5 -4 -10 -9 -10 -6 0 -13 5 -16 10 -3 6 1 10 9 10 9
0 16 -4 16 -10z m161 -51 c15 -7 24 -7 34 1 9 7 20 8 32 2 10 -5 24 -7 31 -5
10 4 13 -3 10 -23 -2 -18 -9 -29 -18 -29 -8 0 -19 -5 -25 -12 -7 -8 -23 -9
-54 -4 -31 6 -51 5 -70 -5 -14 -8 -35 -14 -47 -14 -11 0 -29 -7 -40 -15 -27
-21 -54 -19 -54 4 0 10 -3 33 -6 50 -6 29 -5 31 24 31 17 0 43 5 57 12 19 8
29 8 37 0 8 -8 15 -7 25 4 17 17 37 18 64 3z m-234 -41 c0 -7 4 -26 8 -42 8
-27 7 -28 -21 -23 -92 17 -108 23 -98 39 4 5 19 8 34 4 19 -3 35 1 51 14 26
24 26 23 26 8z m38 -128 c10 -11 15 -23 12 -27 -9 -9 -80 20 -85 35 -6 20 53
14 73 -8z m-74 -1385 c25 -10 29 -15 14 -15 l-20 -1 20 -9 c14 -5 24 -3 32 7
10 13 13 12 19 -11 5 -20 12 -26 28 -24 22 2 86 -30 86 -45 0 -4 9 -3 19 3 28
15 59 12 69 -6 7 -12 17 -14 45 -9 32 6 37 11 37 35 0 35 13 40 119 46 76 4
86 3 108 -17 24 -24 32 -45 11 -33 -9 5 -8 2 1 -10 11 -13 11 -20 3 -28 -17
-17 -15 -26 5 -24 16 1 19 -7 14 -45 0 -5 -6 -7 -12 -3 -8 4 -7 9 2 15 10 6 6
9 -13 9 -16 0 -28 -2 -28 -5 0 -12 39 -43 47 -37 4 4 -1 -3 -12 -16 -15 -19
-16 -22 -2 -17 13 6 15 2 11 -22 -4 -26 -3 -26 10 -10 8 10 12 27 9 37 -4 14
0 20 10 20 8 0 32 19 52 43 42 48 38 39 -21 -53 -53 -84 -176 -329 -199 -399
-10 -29 -30 -73 -46 -96 -16 -24 -29 -49 -29 -56 0 -8 -9 -28 -19 -45 -10 -17
-22 -46 -26 -65 -8 -35 -35 -83 -35 -61 0 7 -13 12 -32 12 l-32 0 24 -17 c14
-10 28 -17 33 -15 14 4 7 -14 -28 -68 -19 -30 -35 -60 -35 -66 0 -6 -6 -17
-14 -23 -12 -10 -14 -8 -10 11 2 13 2 17 -2 11 -8 -19 -24 -16 -24 5 0 13 -2
14 -9 4 -6 -10 -10 -7 -15 13 -8 33 -46 77 -46 53 0 -9 6 -31 14 -49 7 -19 16
-47 20 -64 7 -28 6 -29 -7 -10 -12 17 -23 54 -54 184 -4 17 -2 22 6 17 6 -4
11 -13 11 -21 0 -16 27 -28 32 -14 5 16 36 0 43 -22 4 -10 13 -19 21 -19 8 0
14 -7 14 -15 0 -9 6 -12 15 -9 8 4 15 11 15 16 0 13 -47 58 -61 58 -6 0 -7 4
-4 10 3 5 -7 13 -22 16 -15 4 -42 16 -60 26 -27 17 -31 24 -27 48 4 17 1 31
-6 35 -10 6 -11 1 -6 -19 11 -44 -2 -29 -33 38 -16 35 -47 90 -69 122 -22 33
-49 78 -61 101 -21 43 -153 215 -220 287 -22 24 -28 34 -16 28 11 -6 29 -19
39 -31 10 -11 23 -18 28 -15 4 3 7 0 6 -8 -2 -7 2 -12 8 -11 7 1 11 -5 10 -14
0 -9 5 -18 13 -21 10 -3 13 3 9 27 -3 22 0 31 9 31 9 0 11 8 7 25 -5 20 3 33
46 75 56 54 56 54 63 180 2 38 6 45 27 51 36 10 35 10 71 -6z m176 -1247 c-3
-8 -6 -5 -6 6 -1 11 2 17 5 13 3 -3 4 -12 1 -19z"/>
<path d="M3025 1699 c-10 -30 8 -44 29 -24 9 9 16 23 16 31 0 22 -38 17 -45
-7z"/>
<path d="M3075 1200 c-4 -6 -3 -16 3 -22 6 -6 12 -6 17 2 4 6 3 16 -3 22 -6 6
-12 6 -17 -2z"/>
<path d="M3110 1171 c0 -6 5 -13 10 -16 6 -3 10 1 10 9 0 9 -4 16 -10 16 -5 0
-10 -4 -10 -9z"/>
<path d="M3097 1144 c-11 -11 -8 -64 3 -64 14 0 24 50 13 61 -5 5 -12 6 -16 3z"/>
<path d="M2856 1081 c-4 -5 -1 -20 4 -33 10 -22 10 -22 5 4 -3 16 0 28 8 31 9
4 9 6 0 6 -6 1 -14 -3 -17 -8z"/>
<path d="M2920 885 c0 -18 26 -55 39 -54 10 0 12 2 4 6 -7 2 -13 13 -13 23 0
10 -7 20 -15 24 -8 3 -15 3 -15 1z"/>
<path d="M2554 4980 c1 -17 36 -27 36 -10 0 7 -6 10 -14 7 -8 -3 -17 -1 -19 6
-2 7 -3 5 -3 -3z"/>
<path d="M3565 4747 c-11 -9 -14 -16 -7 -21 15 -9 42 4 42 20 0 18 -11 18 -35
1z"/>
<path d="M3557 4553 c-4 -3 -7 -11 -7 -17 0 -6 5 -5 12 2 6 6 9 14 7 17 -3 3
-9 2 -12 -2z"/>
<path d="M4016 4280 c-5 -14 -21 -43 -37 -64 -34 -47 -37 -71 -9 -86 17 -9 20
-8 20 10 0 11 4 20 9 20 12 0 35 99 29 125 -4 18 -5 17 -12 -5z"/>
<path d="M3498 4143 c7 -3 16 -2 19 1 4 3 -2 6 -13 5 -11 0 -14 -3 -6 -6z"/>
<path d="M3981 4015 c0 -11 -4 -31 -7 -45 -5 -19 -4 -22 5 -14 7 6 11 26 8 45
-2 19 -5 25 -6 14z"/>
<path d="M3188 3823 c6 -2 18 -2 25 0 6 3 1 5 -13 5 -14 0 -19 -2 -12 -5z"/>
<path d="M3940 3765 c-7 -8 -10 -22 -6 -30 9 -25 22 -17 24 15 3 34 0 36 -18
15z"/>
<path d="M3070 3690 c0 -5 5 -10 10 -10 6 0 10 5 10 10 0 6 -4 10 -10 10 -5 0
-10 -4 -10 -10z"/>
<path d="M3874 3528 c-8 -12 21 -38 43 -38 20 0 15 13 -12 33 -17 12 -26 14
-31 5z"/>
<path d="M3507 3331 c-9 -10 -15 -25 -12 -34 4 -8 -3 -35 -14 -60 -32 -71 -29
-82 18 -57 34 17 40 26 46 62 4 23 14 48 23 54 12 8 12 15 3 32 -14 26 -40 27
-64 3z"/>
<path d="M3490 3145 c0 -8 4 -15 10 -15 5 0 7 7 4 15 -4 8 -8 15 -10 15 -2 0
-4 -7 -4 -15z"/>
<path d="M3546 3109 c-32 -37 -32 -45 -3 -53 40 -11 60 -7 53 10 -3 8 -2 12 3
9 18 -10 16 30 -1 47 -23 23 -22 23 -52 -13z"/>
<path d="M3712 3077 c-12 -23 -22 -46 -22 -52 1 -5 12 12 26 38 14 27 24 51
22 52 -2 2 -14 -15 -26 -38z"/>
</g>
</svg>
